<?xml version="1.0" encoding="UTF-8" standalone="no"?>
<!-- Copyright 2017 mathsisfun.com -->
<svg xmlns="http://www.w3.org/2000/svg" width="437" height="140.7" version="1.1">
<defs />
<g transform="translate(-410.533,-938.298)">
<rect x="3070.4" y="-542.2" width="50.5" height="37.4" style="font-family:Arial; font-weight:bold;" />
<rect x="3111.8" y="-619.4" width="40.4" height="203" />
<rect x="2710" y="-602.6" width="36.4" height="67.9" />
<rect x="1622.3" y="-170.9" width="139.4" height="62.6" style="font-family:Arial; font-weight:bold; font-size:12px;" />
<rect x="1631.4" y="-205.3" width="107.1" height="61.6" style="font-family:Arial; font-weight:bold; font-size:12px;" />
<rect x="3070.4" y="-542.2" width="50.5" height="37.4" style="font-family:Arial; font-weight:bold;" />
<rect x="3111.8" y="-619.4" width="40.4" height="203" />
<rect x="2710" y="-602.6" width="36.4" height="67.9" />
<rect x="1622.3" y="-170.9" width="139.4" height="62.6" style="font-family:Arial; font-weight:bold; font-size:12px;" />
<rect x="1631.4" y="-205.3" width="107.1" height="61.6" style="font-family:Arial; font-weight:bold; font-size:12px;" />
<path d="m 815.2,964.3 c 2.9,0 5.2,2.8 5.2,6.3 0,3.5 -2.3,6.3 -5.2,6.3 -2.9,0 -5.2,-2.8 -5.2,-6.3 0,-3.5 2.3,-6.3 5.2,-6.3 z m -8,14.8 h 0.8 c 0.5,0 1,0.5 1,1.2 v 16.3 c 0,0.6 -0.4,1.2 -1,1.2 h -0.8 c -0.5,0 -1,-0.5 -1,-1.2 v -16.3 c 0,-0.6 0.4,-1.2 1,-1.2 z m 15.1,0 h 0.8 c 0.5,0 1,0.5 1,1.2 v 16.3 c 0,0.6 -0.4,1.2 -1,1.2 h -0.8 c -0.5,0 -1,-0.5 -1,-1.2 v -16.3 c 0,-0.6 0.4,-1.2 1,-1.2 z m -10.2,-1.1 h 6 c 1.1,0 2,1.1 2,2.4 0,11.4 0,22.7 0,34.1 0,1.3 -0.9,2.4 -2,2.4 h -2.3 v -17.2 h -1.4 v 17.2 h -2.3 c -1.1,0 -2,-1.1 -2,-2.4 0,-11.4 0,-22.7 0,-34.1 0,-1.3 0.9,-2.4 2,-2.4 z" style="fill:#ff9900; stroke-width:0.51;" />
<path d="m 792.1,969.7 c -2.9,0 -5.2,2.5 -5.2,5.6 0,3.1 2.4,5.6 5.2,5.6 2.9,0 5.2,-2.5 5.2,-5.6 0,-3.1 -2.3,-5.6 -5.2,-5.6 z M 789.1,982 c -1.1,0 -2,1 -2,2.2 0,4.7 0.6,9.5 0,14.1 -0.6,5 -2.3,9.7 -3.5,14.5 0,0.6 0.4,1.1 1,1.1 0.8,0 1.7,0 2.5,0 0,0.3 0,0.6 0,0.9 0,1.2 0.9,2.1 2,2.1 0.8,0 1.5,0 2.3,0 0,-1 0,-2 0,-3 0.5,0 0.9,0 1.4,0 0,1 0,2 0,3 0.8,0 1.6,0 2.3,0 1.1,0 2,-1 2,-2.1 0,-0.3 0,-0.6 0,-0.9 0.8,0 1.7,0 2.5,0 0.5,0 1,-0.5 1,-1.1 -1.2,-4.8 -2.9,-9.6 -3.5,-14.5 -0.6,-4.7 0,-9.4 0,-14.1 0,-1.2 -0.9,-2.2 -2,-2.2 -2,0 -4,0 -6,0 z m -5,1 c -0.5,0 -1,0.5 -1,1.1 v 14.6 c 0,0.6 0.4,1.1 1,1.1 h 0.8 c 0.5,0 1,-0.5 1,-1.1 v -14.6 c 0,-0.6 -0.5,-1.1 -1,-1.1 z m 15.2,0 c -0.5,0 -1,0.5 -1,1.1 v 14.6 c 0,0.6 0.4,1.1 1,1.1 h 0.8 c 0.5,0 1,-0.5 1,-1.1 v -14.6 c 0,-0.6 -0.4,-1.1 -1,-1.1 z" style="fill:#1b1c1f; stroke-width:0.51;" />
<path d="m 838.6,963.4 c 2.9,0 5.2,2.9 5.2,6.4 0,3.5 -2.3,6.4 -5.2,6.4 -2.9,0 -5.2,-2.9 -5.2,-6.4 0,-3.5 2.3,-6.4 5.2,-6.4 z m -8,15.1 h 0.8 c 0.5,0 1,0.5 1,1.2 v 16.5 c 0,0.7 -0.4,1.2 -1,1.2 h -0.8 c -0.5,0 -1,-0.5 -1,-1.2 v -16.5 c 0,-0.7 0.4,-1.2 1,-1.2 z m 15.2,0 h 0.8 c 0.5,0 1,0.5 1,1.2 v 16.5 c 0,0.7 -0.4,1.2 -1,1.2 h -0.8 c -0.5,0 -1,-0.5 -1,-1.2 v -16.5 c 0,-0.7 0.4,-1.2 1,-1.2 z M 835.6,977.3 h 6 c 1.1,0 2,1.1 2,2.4 0,11.6 0,23.1 0,34.7 0,1.3 -0.9,2.4 -2,2.4 h -2.3 v -17.5 h -1.4 v 17.5 h -2.3 c -1.1,0 -2,-1.1 -2,-2.4 0,-11.6 0,-23.1 0,-34.7 0,-1.3 0.9,-2.4 2,-2.4 z" style="fill:#f57900; stroke-width:0.51;" />
<path d="m 743.1,972.9 c -2.9,0 -5.2,2.4 -5.2,5.2 0,2.9 2.4,5.2 5.2,5.2 2.9,0 5.2,-2.4 5.2,-5.2 0,-2.9 -2.3,-5.2 -5.2,-5.2 z m -3,11.4 c -1.1,0 -2,0.9 -2,2 0,4.4 0.6,8.8 0,13.2 -0.6,4.6 -2.3,9 -3.5,13.5 0,0.6 0.4,1 1,1 0.8,0 1.7,0 2.5,0 0,0.3 0,0.6 0,0.8 0,1.1 0.9,2 2,2 0.8,0 1.5,0 2.3,0 0,-0.9 0,-1.9 0,-2.8 0.5,0 0.9,0 1.4,0 0,0.9 0,1.9 0,2.8 0.8,0 1.6,0 2.3,0 1.1,0 2,-0.9 2,-2 0,-0.3 0,-0.5 0,-0.8 0.8,0 1.7,0 2.5,0 0.5,0 1,-0.4 1,-1 -1.2,-4.5 -2.9,-8.9 -3.5,-13.5 -0.6,-4.4 0,-8.8 0,-13.2 0,-1.1 -0.9,-2 -2,-2 -2,0 -4,0 -6,0 z m -5,1 c -0.5,0 -1,0.4 -1,1 v 13.6 c 0,0.5 0.4,1 1,1 h 0.8 c 0.5,0 1,-0.4 1,-1 v -13.6 c 0,-0.5 -0.5,-1 -1,-1 z m 15.2,0 c -0.5,0 -1,0.4 -1,1 v 13.6 c 0,0.5 0.4,1 1,1 h 0.8 c 0.5,0 1,-0.4 1,-1 v -13.6 c 0,-0.5 -0.4,-1 -1,-1 z" style="fill:#f57900; stroke-width:0.51;" />
<path d="m 677.8,977.4 c 2.9,0 5.2,2.1 5.2,4.7 0,2.6 -2.3,4.7 -5.2,4.7 -2.9,0 -5.2,-2.1 -5.2,-4.7 0,-2.6 2.3,-4.7 5.2,-4.7 z m -8,11.1 h 0.8 c 0.5,0 1,0.4 1,0.9 v 12.2 c 0,0.5 -0.4,0.9 -1,0.9 h -0.8 c -0.5,0 -1,-0.4 -1,-0.9 v -12.2 c 0,-0.5 0.4,-0.9 1,-0.9 z m 15.1,0 h 0.8 c 0.5,0 1,0.4 1,0.9 v 12.2 c 0,0.5 -0.4,0.9 -1,0.9 h -0.8 c -0.5,0 -1,-0.4 -1,-0.9 v -12.2 c 0,-0.5 0.4,-0.9 1,-0.9 z m -10.2,-0.9 h 6 c 1.1,0 2,0.8 2,1.8 0,8.5 0,17.1 0,25.6 0,1 -0.9,1.8 -2,1.8 h -2.3 v -12.9 h -1.4 v 12.9 h -2.3 c -1.1,0 -2,-0.8 -2,-1.8 0,-8.5 0,-17.1 0,-25.6 0,-1 0.9,-1.8 2,-1.8 z" style="fill:#f57900; stroke-width:0.51;" />
<path d="m 599.1,980.5 c -2.9,0 -5.2,1.9 -5.2,4.3 0,2.4 2.4,4.3 5.2,4.3 2.9,0 5.2,-1.9 5.2,-4.3 0,-2.4 -2.3,-4.3 -5.2,-4.3 z m -3,9.5 c -1.1,0 -2,0.8 -2,1.7 0,3.6 0.6,7.3 0,10.9 -0.6,3.8 -2.3,7.5 -3.5,11.2 0,0.5 0.4,0.8 1,0.8 0.8,0 1.7,0 2.5,0 0,0.2 0,0.5 0,0.7 0,0.9 0.9,1.7 2,1.7 0.8,0 1.5,0 2.3,0 0,-0.8 0,-1.5 0,-2.3 0.5,0 0.9,0 1.4,0 0,0.8 0,1.6 0,2.3 0.8,0 1.6,0 2.3,0 1.1,0 2,-0.7 2,-1.7 0,-0.2 0,-0.5 0,-0.7 0.8,0 1.7,0 2.5,0 0.5,0 1,-0.4 1,-0.8 -1.2,-3.7 -2.9,-7.4 -3.5,-11.2 -0.6,-3.6 0,-7.3 0,-10.9 0,-0.9 -0.9,-1.7 -2,-1.7 -2,0 -4,0 -6,0 z m -5,0.8 c -0.5,0 -1,0.4 -1,0.8 v 11.2 c 0,0.5 0.4,0.8 1,0.8 h 0.8 c 0.5,0 1,-0.4 1,-0.8 v -11.2 c 0,-0.4 -0.5,-0.8 -1,-0.8 z m 15.2,0 c -0.5,0 -1,0.4 -1,0.8 v 11.2 c 0,0.5 0.4,0.8 1,0.8 h 0.8 c 0.5,0 1,-0.4 1,-0.8 v -11.2 c 0,-0.4 -0.4,-0.8 -1,-0.8 z" style="fill:#f57900; stroke-width:0.51;" />
<path d="m 652,977.4 c 2.9,0 5.2,2.1 5.2,4.7 0,2.6 -2.3,4.7 -5.2,4.7 -2.9,0 -5.2,-2.1 -5.2,-4.7 0,-2.6 2.3,-4.7 5.2,-4.7 z m -8,11.1 h 0.8 c 0.5,0 1,0.4 1,0.9 v 12.2 c 0,0.5 -0.4,0.9 -1,0.9 h -0.8 c -0.5,0 -1,-0.4 -1,-0.9 v -12.2 c 0,-0.5 0.4,-0.9 1,-0.9 z m 15.1,0 h 0.8 c 0.5,0 1,0.4 1,0.9 v 12.2 c 0,0.5 -0.4,0.9 -1,0.9 h -0.8 c -0.5,0 -1,-0.4 -1,-0.9 v -12.2 c 0,-0.5 0.4,-0.9 1,-0.9 z m -10.2,-0.9 h 6 c 1.1,0 2,0.8 2,1.8 0,8.5 0,17.1 0,25.6 0,1 -0.9,1.8 -2,1.8 h -2.3 v -12.9 h -1.4 v 12.9 h -2.3 c -1.1,0 -2,-0.8 -2,-1.8 0,-8.5 0,-17.1 0,-25.6 0,-1 0.9,-1.8 2,-1.8 z" style="fill:#ff9900; stroke-width:0.51;" />
<path d="m 768.9,970.4 c -2.9,0 -5.2,2.5 -5.2,5.5 0,3.1 2.4,5.5 5.2,5.5 2.9,0 5.2,-2.5 5.2,-5.5 0,-3.1 -2.3,-5.5 -5.2,-5.5 z m -3,12.1 c -1.1,0 -2,1 -2,2.1 0,4.6 0.6,9.3 0,13.9 -0.6,4.9 -2.3,9.5 -3.5,14.3 0,0.6 0.4,1 1,1 0.8,0 1.7,0 2.5,0 0,0.3 0,0.6 0,0.9 0,1.2 0.9,2.1 2,2.1 0.8,0 1.5,0 2.3,0 0,-1 0,-2 0,-3 0.5,0 0.9,0 1.4,0 0,1 0,2 0,3 0.8,0 1.6,0 2.3,0 1.1,0 2,-0.9 2,-2.1 0,-0.3 0,-0.6 0,-0.9 0.8,0 1.7,0 2.5,0 0.5,0 1,-0.5 1,-1 -1.2,-4.8 -2.9,-9.4 -3.5,-14.3 -0.6,-4.6 0,-9.3 0,-13.9 0,-1.2 -0.9,-2.1 -2,-2.1 -2,0 -4,0 -6,0 z m -5,1 c -0.5,0 -1,0.5 -1,1 v 14.4 c 0,0.6 0.4,1 1,1 h 0.8 c 0.5,0 1,-0.5 1,-1 v -14.4 c 0,-0.6 -0.5,-1 -1,-1 z m 15.2,0 c -0.5,0 -1,0.5 -1,1 v 14.4 c 0,0.6 0.4,1 1,1 h 0.8 c 0.5,0 1,-0.5 1,-1 v -14.4 c 0,-0.6 -0.4,-1 -1,-1 z" style="fill:#19aeff; stroke-width:0.51;" />
<path d="m 698.7,974.5 c 2.6,0 4.8,2.3 4.8,5.1 0,2.8 -2.1,5.1 -4.8,5.1 -2.6,0 -4.8,-2.3 -4.8,-5.1 0,-2.8 2.1,-5.1 4.8,-5.1 z m -7.3,12 h 0.7 c 0.5,0 0.9,0.4 0.9,1 v 13.1 c 0,0.5 -0.4,1 -0.9,1 h -0.7 c -0.5,0 -0.9,-0.4 -0.9,-1 v -13.1 c 0,-0.5 0.4,-1 0.9,-1 z m 13.8,0 h 0.7 c 0.5,0 0.9,0.4 0.9,1 v 13.1 c 0,0.5 -0.4,1 -0.9,1 h -0.7 c -0.5,0 -0.9,-0.4 -0.9,-1 v -13.1 c 0,-0.5 0.4,-1 0.9,-1 z m -9.3,-0.9 h 5.5 c 1,0 1.8,0.9 1.8,1.9 0,9.2 0,18.3 0,27.5 0,1.1 -0.8,1.9 -1.8,1.9 h -2.1 v -13.9 h -1.3 v 13.9 h -2.1 c -1,0 -1.8,-0.9 -1.8,-1.9 0,-9.2 0,-18.3 0,-27.5 0,-1.1 0.8,-1.9 1.8,-1.9 z" style="fill:#ff9900; stroke-width:0.51;" />
<path d="m 625.4,979.3 c -3.1,0 -5.5,2 -5.5,4.5 0,2.5 2.5,4.5 5.5,4.5 3.1,0 5.5,-2 5.5,-4.5 0,-2.5 -2.5,-4.5 -5.5,-4.5 z m -3.2,9.8 c -1.2,0 -2.1,0.8 -2.1,1.7 0,3.8 0.6,7.5 0,11.3 -0.6,4 -2.5,7.7 -3.7,11.6 0,0.5 0.5,0.8 1,0.8 0.9,0 1.8,0 2.7,0 0,0.2 0,0.5 0,0.7 0,1 1,1.7 2.1,1.7 0.8,0 1.6,0 2.4,0 0,-0.8 0,-1.6 0,-2.4 0.5,0 1,0 1.5,0 0,0.8 0,1.6 0,2.4 0.8,0 1.6,0 2.5,0 1.2,0 2.1,-0.8 2.1,-1.7 0,-0.2 0,-0.5 0,-0.7 0.9,0 1.8,0 2.7,0 0.6,0 1,-0.4 1,-0.8 -1.2,-3.9 -3.1,-7.6 -3.7,-11.6 -0.6,-3.7 0,-7.5 0,-11.3 0,-0.9 -0.9,-1.7 -2.1,-1.7 -2.1,0 -4.2,0 -6.4,0 z m -5.2,0.8 c -0.6,0 -1,0.4 -1,0.8 v 11.6 c 0,0.5 0.5,0.8 1,0.8 h 0.8 c 0.6,0 1.1,-0.4 1.1,-0.8 v -11.6 c 0,-0.5 -0.5,-0.8 -1.1,-0.8 z m 16,0 c -0.6,0 -1,0.4 -1,0.8 v 11.6 c 0,0.5 0.5,0.8 1,0.8 h 0.8 c 0.6,0 1,-0.4 1,-0.8 v -11.6 c 0,-0.5 -0.5,-0.8 -1,-0.8 z" style="fill:#1b1c1f; stroke-width:0.51;" />
<path d="m 723.3,974.2 c 2.6,0 4.8,2.3 4.8,5.1 0,2.8 -2.1,5.1 -4.8,5.1 -2.6,0 -4.8,-2.3 -4.8,-5.1 0,-2.8 2.1,-5.1 4.8,-5.1 z m -7.3,12 h 0.7 c 0.5,0 0.9,0.4 0.9,1 v 13.2 c 0,0.5 -0.4,1 -0.9,1 h -0.7 c -0.5,0 -0.9,-0.4 -0.9,-1 v -13.2 c 0,-0.5 0.4,-1 0.9,-1 z m 13.8,0 h 0.7 c 0.5,0 0.9,0.4 0.9,1 v 13.2 c 0,0.5 -0.4,1 -0.9,1 h -0.7 c -0.5,0 -0.9,-0.4 -0.9,-1 v -13.2 c 0,-0.5 0.4,-1 0.9,-1 z m -9.3,-0.9 h 5.5 c 1,0 1.8,0.9 1.8,2 0,9.2 0,18.4 0,27.7 0,1.1 -0.8,2 -1.8,2 h -2.1 v -14 h -1.3 v 14 h -2.1 c -1,0 -1.8,-0.9 -1.8,-2 0,-9.2 0,-18.4 0,-27.7 0,-1.1 0.8,-2 1.8,-2 z" style="fill:#005c94; stroke-width:0.51;" />
<path d="m 579.1,979.9 c -2.6,0 -4.8,2 -4.8,4.4 0,2.4 2.1,4.4 4.8,4.4 2.6,0 4.8,-2 4.8,-4.4 0,-2.4 -2.1,-4.4 -4.8,-4.4 z m -2.8,9.6 c -1,0 -1.8,0.8 -1.8,1.7 0,3.7 0.5,7.4 0,11.1 -0.6,3.9 -2.1,7.6 -3.2,11.4 0,0.5 0.4,0.8 0.9,0.8 0.8,0 1.5,0 2.3,0 0,0.2 0,0.5 0,0.7 0,0.9 0.8,1.7 1.8,1.7 0.7,0 1.4,0 2.1,0 0,-0.8 0,-1.6 0,-2.4 0.4,0 0.8,0 1.3,0 0,0.8 0,1.6 0,2.4 0.7,0 1.4,0 2.1,0 1,0 1.8,-0.8 1.8,-1.7 0,-0.2 0,-0.5 0,-0.7 0.8,0 1.5,0 2.3,0 0.5,0 0.9,-0.4 0.9,-0.8 -1.1,-3.8 -2.7,-7.5 -3.2,-11.4 -0.5,-3.7 0,-7.4 0,-11.1 0,-0.9 -0.8,-1.7 -1.8,-1.7 -1.8,0 -3.7,0 -5.5,0 z m -4.5,0.8 c -0.5,0 -0.9,0.4 -0.9,0.8 v 11.4 c 0,0.5 0.4,0.8 0.9,0.8 h 0.7 c 0.5,0 0.9,-0.4 0.9,-0.8 v -11.4 c 0,-0.5 -0.4,-0.8 -0.9,-0.8 z m 13.8,0 c -0.5,0 -0.9,0.4 -0.9,0.8 v 11.4 c 0,0.5 0.4,0.8 0.9,0.8 h 0.7 c 0.5,0 0.9,-0.4 0.9,-0.8 v -11.4 c 0,-0.5 -0.4,-0.8 -0.9,-0.8 z" style="fill:#1b1c1f; stroke-width:0.51;" />
<path d="m 557.5,981.2 c 2.6,0 4.8,1.9 4.8,4.3 0,2.3 -2.1,4.3 -4.8,4.3 -2.6,0 -4.8,-1.9 -4.8,-4.3 0,-2.3 2.1,-4.3 4.8,-4.3 z m -7.3,10.1 h 0.7 c 0.5,0 0.9,0.4 0.9,0.8 v 11 c 0,0.4 -0.4,0.8 -0.9,0.8 h -0.7 c -0.5,0 -0.9,-0.4 -0.9,-0.8 v -11 c 0,-0.4 0.4,-0.8 0.9,-0.8 z m 13.8,0 h 0.7 c 0.5,0 0.9,0.4 0.9,0.8 v 11 c 0,0.4 -0.4,0.8 -0.9,0.8 h -0.7 c -0.5,0 -0.9,-0.4 -0.9,-0.8 v -11 c 0,-0.4 0.4,-0.8 0.9,-0.8 z m -9.3,-0.8 h 5.5 c 1,0 1.8,0.7 1.8,1.6 0,7.7 0,15.4 0,23.1 0,0.9 -0.8,1.6 -1.8,1.6 h -2.1 v -11.7 h -1.3 v 11.7 h -2.1 c -1,0 -1.8,-0.7 -1.8,-1.6 0,-7.7 0,-15.4 0,-23.1 0,-0.9 0.8,-1.6 1.8,-1.6 z" style="fill:#005c94; stroke-width:0.51;" />
<path d="m 422.1,987.5 c -2.6,0 -4.8,1.6 -4.8,3.5 0,1.9 2.1,3.5 4.8,3.5 2.6,0 4.8,-1.6 4.8,-3.5 0,-1.9 -2.1,-3.5 -4.8,-3.5 z m -2.8,7.6 c -1,0 -1.8,0.6 -1.8,1.3 0,2.9 0.5,5.9 0,8.8 -0.6,3.1 -2.1,6 -3.2,9 0,0.4 0.4,0.7 0.9,0.7 0.8,0 1.5,0 2.3,0 0,0.2 0,0.4 0,0.5 0,0.7 0.8,1.3 1.8,1.3 0.7,0 1.4,0 2.1,0 0,-0.6 0,-1.3 0,-1.9 0.4,0 0.8,0 1.3,0 0,0.6 0,1.2 0,1.9 0.7,0 1.4,0 2.1,0 1,0 1.8,-0.6 1.8,-1.3 0,-0.2 0,-0.4 0,-0.5 0.8,0 1.5,0 2.3,0 0.5,0 0.9,-0.3 0.9,-0.7 -1.1,-3 -2.7,-5.9 -3.2,-9 -0.5,-2.9 0,-5.9 0,-8.8 0,-0.7 -0.8,-1.3 -1.8,-1.3 -1.8,0 -3.7,0 -5.5,0 z m -4.5,0.6 c -0.5,0 -0.9,0.3 -0.9,0.7 v 9.1 c 0,0.4 0.4,0.7 0.9,0.7 h 0.7 c 0.5,0 0.9,-0.3 0.9,-0.7 v -9.1 c 0,-0.4 -0.4,-0.7 -0.9,-0.7 z m 13.8,0 c -0.5,0 -0.9,0.3 -0.9,0.7 v 9.1 c 0,0.4 0.4,0.7 0.9,0.7 h 0.7 c 0.5,0 0.9,-0.3 0.9,-0.7 v -9.1 c 0,-0.4 -0.4,-0.7 -0.9,-0.7 z" style="fill:#005c94; stroke-width:0.51;" />
<path d="m 513.6,981.2 c 3,0 5.4,1.9 5.4,4.3 0,2.3 -2.4,4.3 -5.4,4.3 -3,0 -5.4,-1.9 -5.4,-4.3 0,-2.3 2.4,-4.3 5.4,-4.3 z m -8.2,10.1 h 0.8 c 0.6,0 1,0.4 1,0.8 v 11 c 0,0.4 -0.5,0.8 -1,0.8 h -0.8 c -0.6,0 -1,-0.4 -1,-0.8 v -11 c 0,-0.4 0.5,-0.8 1,-0.8 z m 15.6,0 h 0.8 c 0.6,0 1,0.4 1,0.8 v 11 c 0,0.4 -0.5,0.8 -1,0.8 h -0.8 c -0.6,0 -1,-0.4 -1,-0.8 v -11 c 0,-0.4 0.5,-0.8 1,-0.8 z m -10.5,-0.8 h 6.2 c 1.1,0 2.1,0.7 2.1,1.6 0,7.7 0,15.4 0,23.1 0,0.9 -0.9,1.6 -2.1,1.6 h -2.4 v -11.7 h -1.4 v 11.7 h -2.4 c -1.1,0 -2.1,-0.7 -2.1,-1.6 0,-7.7 0,-15.4 0,-23.1 0,-0.9 0.9,-1.6 2.1,-1.6 z" style="fill:#1b1c1f; stroke-width:0.51;" />
<path d="m 536.1,981.2 c -2.6,0 -4.8,1.9 -4.8,4.3 0,2.3 2.1,4.3 4.8,4.3 2.6,0 4.8,-1.9 4.8,-4.3 0,-2.3 -2.1,-4.3 -4.8,-4.3 z m -2.8,9.3 c -1,0 -1.8,0.7 -1.8,1.6 0,3.6 0.5,7.2 0,10.7 -0.6,3.8 -2.1,7.3 -3.2,11 0,0.4 0.4,0.8 0.9,0.8 0.8,0 1.5,0 2.3,0 0,0.2 0,0.4 0,0.7 0,0.9 0.8,1.6 1.8,1.6 0.7,0 1.4,0 2.1,0 0,-0.8 0,-1.5 0,-2.3 0.4,0 0.8,0 1.3,0 0,0.8 0,1.5 0,2.3 0.7,0 1.4,0 2.1,0 1,0 1.8,-0.7 1.8,-1.6 0,-0.2 0,-0.4 0,-0.7 0.8,0 1.5,0 2.3,0 0.5,0 0.9,-0.4 0.9,-0.8 -1.1,-3.7 -2.7,-7.2 -3.2,-11 -0.5,-3.5 0,-7.1 0,-10.7 0,-0.9 -0.8,-1.6 -1.8,-1.6 -1.8,0 -3.7,0 -5.5,0 z m -4.5,0.8 c -0.5,0 -0.9,0.4 -0.9,0.8 v 11 c 0,0.4 0.4,0.8 0.9,0.8 h 0.7 c 0.5,0 0.9,-0.4 0.9,-0.8 v -11 c 0,-0.4 -0.4,-0.8 -0.9,-0.8 z m 13.8,0 c -0.5,0 -0.9,0.4 -0.9,0.8 v 11 c 0,0.4 0.4,0.8 0.9,0.8 h 0.7 c 0.5,0 0.9,-0.4 0.9,-0.8 v -11 c 0,-0.4 -0.4,-0.8 -0.9,-0.8 z" style="fill:#ff9900; stroke-width:0.51;" />
<path d="m 461.3,984.1 c 2.1,0 3.8,1.7 3.8,3.9 0,2.2 -1.7,3.9 -3.8,3.9 -2.1,0 -3.8,-1.7 -3.8,-3.9 0,-2.2 1.7,-3.9 3.8,-3.9 z m -5.8,9.2 h 0.6 c 0.4,0 0.7,0.3 0.7,0.7 v 10.1 c 0,0.4 -0.3,0.7 -0.7,0.7 h -0.6 c -0.4,0 -0.7,-0.3 -0.7,-0.7 v -10.1 c 0,-0.4 0.3,-0.7 0.7,-0.7 z m 11,0 h 0.6 c 0.4,0 0.7,0.3 0.7,0.7 v 10.1 c 0,0.4 -0.3,0.7 -0.7,0.7 h -0.6 c -0.4,0 -0.7,-0.3 -0.7,-0.7 v -10.1 c 0,-0.4 0.3,-0.7 0.7,-0.7 z m -7.4,-0.7 h 4.4 c 0.8,0 1.5,0.7 1.5,1.5 0,7.1 0,14.2 0,21.2 0,0.8 -0.7,1.5 -1.5,1.5 h -1.7 v -10.7 h -1 v 10.7 h -1.7 c -0.8,0 -1.5,-0.7 -1.5,-1.5 0,-7.1 0,-14.2 0,-21.2 0,-0.8 0.7,-1.5 1.5,-1.5 z" style="fill:#ff6600; stroke-width:0.51;" />
<path d="m 442.1,986.5 c -2.1,0 -3.8,1.6 -3.8,3.6 0,2 1.7,3.6 3.8,3.6 2.1,0 3.8,-1.6 3.8,-3.6 0,-2 -1.7,-3.6 -3.8,-3.6 z m -2.2,7.9 c -0.8,0 -1.5,0.6 -1.5,1.4 0,3 0.4,6.1 0,9.1 -0.4,3.2 -1.7,6.2 -2.6,9.3 0,0.4 0.3,0.7 0.7,0.7 0.6,0 1.2,0 1.8,0 0,0.2 0,0.4 0,0.6 0,0.8 0.7,1.4 1.5,1.4 0.6,0 1.1,0 1.7,0 0,-0.7 0,-1.3 0,-1.9 0.3,0 0.7,0 1,0 0,0.7 0,1.3 0,1.9 0.6,0 1.1,0 1.7,0 0.8,0 1.5,-0.6 1.5,-1.4 0,-0.2 0,-0.4 0,-0.6 0.6,0 1.2,0 1.8,0 0.4,0 0.7,-0.3 0.7,-0.7 -0.9,-3.1 -2.1,-6.2 -2.6,-9.3 -0.4,-3 0,-6.1 0,-9.1 0,-0.8 -0.6,-1.4 -1.5,-1.4 -1.5,0 -2.9,0 -4.4,0 z m -3.6,0.7 c -0.4,0 -0.7,0.3 -0.7,0.7 v 9.4 c 0,0.4 0.3,0.7 0.7,0.7 h 0.6 c 0.4,0 0.7,-0.3 0.7,-0.7 v -9.4 c 0,-0.4 -0.3,-0.7 -0.7,-0.7 z m 11,0 c -0.4,0 -0.7,0.3 -0.7,0.7 v 9.4 c 0,0.4 0.3,0.7 0.7,0.7 h 0.6 c 0.4,0 0.7,-0.3 0.7,-0.7 v -9.4 c 0,-0.4 -0.3,-0.7 -0.7,-0.7 z" style="fill:#ef2929; stroke-width:0.51;" />
<path d="m 476.2,983.1 c 2.1,0 3.8,1.8 3.8,4 0,2.2 -1.7,4 -3.8,4 -2.1,0 -3.8,-1.8 -3.8,-4 0,-2.2 1.7,-4 3.8,-4 z m -5.8,9.5 h 0.6 c 0.4,0 0.7,0.3 0.7,0.8 v 10.4 c 0,0.4 -0.3,0.8 -0.7,0.8 h -0.6 c -0.4,0 -0.7,-0.3 -0.7,-0.8 v -10.4 c 0,-0.4 0.3,-0.8 0.7,-0.8 z m 11,0 h 0.6 c 0.4,0 0.7,0.3 0.7,0.8 v 10.4 c 0,0.4 -0.3,0.8 -0.7,0.8 h -0.6 c -0.4,0 -0.7,-0.3 -0.7,-0.8 v -10.4 c 0,-0.4 0.3,-0.8 0.7,-0.8 z m -7.4,-0.7 h 4.4 c 0.8,0 1.5,0.7 1.5,1.5 0,7.3 0,14.6 0,21.9 0,0.9 -0.7,1.5 -1.5,1.5 h -1.7 v -11 h -1 v 11 h -1.7 c -0.8,0 -1.5,-0.7 -1.5,-1.5 0,-7.3 0,-14.6 0,-21.9 0,-0.8 0.7,-1.5 1.5,-1.5 z" style="fill:#1b1c1f; stroke-width:0.51;" />
<text x="678.3" y="959.5" style="font-family:'Comic Sans MS'; font-size:28.6px; font-style:italic; color:black; overflow:visible; fill:#19aeff; stroke-width:0.51px;">You</text>
<g transform="matrix(0.510458,0,0,0.510458,901.943,862.623)">
<path d="m -329.5,168.5 c 13.4,-2.5 27.1,-2.4 40.7,-2.6 8.9,0 17.2,5.6 21.4,13.3 3.2,5.7 6.3,11.8 6.6,18.5 -2.6,0.7 -5.2,1.4 -7.7,2 -0.1,-6.1 -3,-11.7 -6,-16.8 -3.4,-6.2 -10.5,-10.2 -17.6,-9.6 -13.2,0.2 -26.6,0.2 -39.6,3 0.8,-2.6 1.5,-5.1 2.3,-7.7 z" style="color:black; overflow:visible; fill:#19aeff; stroke-width:1px;" />
<path d="m -284.1,184.7 c 5.6,-0.3 11.2,1.3 16.1,3.8 4.1,2 6.8,6.1 8.7,10 -2.4,1.2 -4.7,2.4 -7.1,3.7 -1.6,-3.6 -4.3,-6.9 -8.1,-8.2 -3.9,-1.6 -8.2,-2.3 -12.4,-2 -0.9,-0.2 0.7,-2 0.9,-3 0.6,-1.4 1.3,-2.9 1.9,-4.4 z" style="color:black; overflow:visible; fill:#19aeff; stroke-width:1px;" />
<path d="m -250.4,175.8 c -3,2.2 -5.9,4.9 -7,8.6 -2.2,4.5 -1.7,10.1 1.2,14.1 0.5,0.8 -1.6,1.5 -2.2,2.3 -1.2,1 -2.5,2 -3.7,3 -3.7,-4.3 -5.1,-10.4 -4.3,-16 0.9,-4.2 2.5,-8.4 5.4,-11.7 1.3,-1.4 2.7,-3.6 4.7,-2.2 2,0.6 3.9,1.3 5.9,1.9 z" style="color:black; overflow:visible; fill:#19aeff; stroke-width:1px;" />
</g>
<path d="m 493.9,983.1 c 2.1,0 3.8,1.8 3.8,4 0,2.2 -1.7,4 -3.8,4 -2.1,0 -3.8,-1.8 -3.8,-4 0,-2.2 1.7,-4 3.8,-4 z m -5.8,9.5 h 0.6 c 0.4,0 0.7,0.3 0.7,0.8 v 10.4 c 0,0.4 -0.3,0.8 -0.7,0.8 h -0.6 c -0.4,0 -0.7,-0.3 -0.7,-0.8 v -10.4 c 0,-0.4 0.3,-0.8 0.7,-0.8 z m 11,0 h 0.6 c 0.4,0 0.7,0.3 0.7,0.8 v 10.4 c 0,0.4 -0.3,0.8 -0.7,0.8 h -0.6 c -0.4,0 -0.7,-0.3 -0.7,-0.8 v -10.4 c 0,-0.4 0.3,-0.8 0.7,-0.8 z m -7.4,-0.7 h 4.4 c 0.8,0 1.5,0.7 1.5,1.5 0,7.3 0,14.6 0,21.9 0,0.9 -0.7,1.5 -1.5,1.5 h -1.7 v -11 h -1 v 11 h -1.7 c -0.8,0 -1.5,-0.7 -1.5,-1.5 0,-7.3 0,-14.6 0,-21.9 0,-0.8 0.7,-1.5 1.5,-1.5 z" style="fill:#ef2929; stroke-width:0.51;" />
<text x="561.5" y="1078.7" style="font-family:'Comic Sans MS'; font-size:28.6px; color:black; overflow:visible; fill:#007ad2; stroke-width:0.51px;">80%</text>
<g transform="matrix(0.521163,0,0,0.510458,912.244,866.707)">
<path d="m -954.6,296.3 c 12.1,22 42.1,18.4 63.8,20.4 70.2,-0.6 141.9,-11 210.9,6.7 23.9,6.4 47.3,20.9 56.9,44.6 -15.5,10.6 -17.3,-25 -34.6,-26.9 -44.4,-23.2 -96.4,-19.9 -145,-20.5 -46.7,0.4 -94.8,9.6 -140.6,-3.5 -7.1,-1.7 -30.3,-19.3 -11.4,-20.8 z" style="color:black; overflow:visible; fill:#007ad2; stroke-width:1px;" />
<path d="m -303.1,296.3 c -12.1,22 -42.1,18.4 -63.8,20.4 -70.2,-0.6 -141.9,-11 -210.9,6.7 -23.9,6.4 -47.3,20.9 -56.9,44.6 15.5,10.6 17.3,-25 34.6,-26.9 44.4,-23.2 96.4,-19.9 145,-20.5 46.7,0.4 94.8,9.6 140.6,-3.5 7.1,-1.7 30.3,-19.3 11.4,-20.8 z" style="color:black; overflow:visible; fill:#007ad2; stroke-width:1px;" />
</g>
</g>
</svg>
