<?xml version="1.0" encoding="UTF-8" standalone="no"?>
<!-- Copyright 2017 mathsisfun.com -->
<svg xmlns="http://www.w3.org/2000/svg" width="395.2" height="226.1" version="1.1">
<defs/>
<rect x="-0" y="-0" width="395.2" height="226.1" style="color:black; overflow:visible; fill:white; stroke-width:3.1;"/>
<rect x="48.6" y="51.5" ry="22.7" width="206.3" height="165.6" style="color:black; overflow:visible; opacity:0.14; fill:#19aeff; stroke-width:1;"/>
<path d="m 355.2,24.2 a 20.1,20.1 0 0 1 -19.9,20.2 20.1,20.1 0 0 1 -20.4,-19.8 20.1,20.1 0 0 1 19.7,-20.5 20.1,20.1 0 0 1 20.6,19.6" style="color:black; overflow:visible; opacity:0.7; fill:#ffc875; stroke-width:1.22;"/>
<path d="m 177.5,164.2 a 16.5,16.5 0 0 1 -16.4,16.6 16.5,16.5 0 0 1 -16.7,-16.3 16.5,16.5 0 0 1 16.2,-16.7 16.5,16.5 0 0 1 16.9,16" style="color:black; overflow:visible; opacity:0.7; fill:#ffc875; stroke-width:1;"/>
<path d="m 106,165.7 a 16.5,16.5 0 0 1 -16.3,16.6 16.5,16.5 0 0 1 -16.7,-16.2 16.5,16.5 0 0 1 16.1,-16.8 16.5,16.5 0 0 1 16.9,16" style="color:black; overflow:visible; opacity:0.7; fill:#ffc875; stroke-width:1;"/>
<text x="389.9" y="32.7" style="font-family:Verdana; text-align:end; text-anchor:end; font-size:24px; color:black; overflow:visible; fill:#75507b; stroke-width:0.2px;">15,16,21,23,23,26,26,30,32,41</text>
<text x="80.8" y="114.5" style="font-family:Verdana; font-size:26px; color:black; overflow:visible; fill:#4e9a06; stroke-width:0.2px;">1</text>
<text x="81" y="144.9" style="font-family:Verdana; font-size:26px; color:black; overflow:visible; fill:#4e9a06; stroke-width:0.2px;">2</text>
<text x="81.1" y="175.1" style="font-family:Verdana; font-size:26px; color:black; overflow:visible; fill:#4e9a06; stroke-width:0.2px;">3</text>
<text x="81.4" y="205.1" style="font-family:Verdana; font-size:26px; color:black; overflow:visible; fill:#4e9a06; stroke-width:0.2px;">4</text>
<text x="126.1" y="113.1" style="font-family:Verdana; font-size:26px; color:black; overflow:visible; fill:#729fcf; stroke-width:0.2px;">5 6</text>
<text x="125.9" y="143.5" style="font-family:Verdana; font-size:26px; color:black; overflow:visible; fill:#729fcf; stroke-width:0.2px;">1 3 3 6 6</text>
<text x="126.3" y="173.7" style="font-family:Verdana; font-size:26px; color:black; overflow:visible; fill:#729fcf; stroke-width:0.2px;">0 2</text>
<text x="125.9" y="205.2" style="font-family:Verdana; font-size:26px; color:black; overflow:visible; fill:#729fcf; stroke-width:0.2px;">1</text>
<text x="337.1" y="185.4" style="font-family:Georgia; font-size:21.9px; font-style:italic; color:black; overflow:visible; opacity:0.9; fill:#ff9900; stroke-width:0.92;">&quot;32&quot;</text>
<text x="279.8" y="162.3" style="font-family:Georgia; font-size:21.9px; font-style:italic; color:black; overflow:visible; opacity:0.9; fill:#ff9900; stroke-width:1;">how to</text>
<text x="63.2" y="81.2" style="font-family:Verdana; font-size:20px; color:black; overflow:visible; fill:#4e9a06; stroke-width:0.2px;">Stem</text>
<text x="126.7" y="81.2" style="font-family:Verdana; font-size:20px; color:black; overflow:visible; fill:#729fcf; stroke-width:0.2px;">Leaf</text>
<g transform="rotate(7.54959,1940.85,1122.58)">
<path d="m -0.5,419.3 c 3.4,-1.5 8.6,-2.8 5.1,-1.8 2.9,-0.3 5.4,-4.2 8.2,-2.1 3.2,1.1 -3.9,2.8 -5,3.7 -2.2,0.9 -5.3,1.7 -4.4,1.4 -1.2,0.6 -2.6,-1 -3.8,-1.3 z" style="color:black; overflow:visible; opacity:0.9; fill:#ff9900; stroke-width:1.13;"/>
<path d="m 2.4,418.5 c 3.8,2 6.8,5.5 8,9.6 -2.2,0.9 -4.1,1.6 -4.4,-1.7 -0.4,-3 -6.7,-4.8 -5.5,-6.4 0.6,-0.5 1.2,-1 1.9,-1.5 z" style="color:black; overflow:visible; opacity:0.9; fill:#ff9900; stroke-width:1;"/>
</g>
<g transform="translate(23.7335,-267.378)">
<path d="m 158.9,433.9 c 3,-0.3 5.9,-1 8.7,-2.1 -1,0.4 -1.7,0.7 -0.3,0 1.4,-0.1 2.6,-2.3 3.9,-1.4 0.8,0.5 1.7,0.9 2.5,1.4 -1.6,0.9 -3.1,2 -4.9,2.6 -3.2,1.6 -6.8,2.4 -10.4,3 -1.5,0.3 -2.2,0 -1,-1.1 0.5,-0.8 1.1,-1.6 1.6,-2.4 z" style="color:black; overflow:visible; fill:#ff9900; stroke-width:1.2;"/>
<path d="m 158.6,435.1 c 2.6,0.9 4.2,3.4 5.7,5.5 0.8,1.4 2.6,3.8 2.1,5.1 -1,0.3 -2,0.6 -2.9,0.9 -1,-3.2 -3,-6 -5.4,-8.3 -0.9,-0.9 -2.8,-0.7 -1.1,-1.8 0.5,-0.5 1.1,-1 1.6,-1.5 z" style="color:black; overflow:visible; fill:#ff9900; stroke-width:1;"/>
</g>
<path d="m 113.9,171.9 c 63.4,24.1 96.4,19 145,-11.5 59.2,-46.5 71,-118.2 71,-118.2" style="fill:none; stroke:#ff9900; stroke-width:3;"/>
<path d="m 183.6,169.6 c 22.1,2.1 40.1,3.3 70.7,-10.5 24,-10.8 41.1,-37.2 54.3,-58.6" style="fill:none; stroke:#ff9900; stroke-width:3;"/>
<text x="282.2" y="184.6" style="font-family:Georgia; font-size:21.9px; font-style:italic; color:black; overflow:visible; opacity:0.9; fill:#ff9900; stroke-width:1;">place</text>
</svg>
