<?xml version="1.0" encoding="UTF-8" standalone="no"?>
<!-- Copyright 2017 mathsisfun.com -->
<svg xmlns="http://www.w3.org/2000/svg" xmlns:xlink="http://www.w3.org/1999/xlink" width="604.3" height="367.7" version="1.1" style="font-size:15.6px; stroke-width:1.04;">
<defs>
</defs>
<path style="fill:none; stroke:#b3b3b3; stroke-linejoin:round;" d="M 336.5,280.5 H 128.2 V 38 h 416.6 V 280.5 Z"/>
<path style="fill:none; stroke:#b3b3b3; stroke-linejoin:round;" d="M 128.2,37.9 V 280.5"/>
<path style="fill:none; stroke:#b3b3b3; stroke-linejoin:round;" d="M 180.2,37.9 V 280.5"/>
<path style="fill:none; stroke:#b3b3b3; stroke-linejoin:round;" d="M 232.4,37.9 V 280.5"/>
<path style="fill:none; stroke:#b3b3b3; stroke-linejoin:round;" d="M 284.4,37.9 V 280.5"/>
<path style="fill:none; stroke:#b3b3b3; stroke-linejoin:round;" d="M 336.5,37.9 V 280.5"/>
<path style="fill:none; stroke:#b3b3b3; stroke-linejoin:round;" d="M 388.6,37.9 V 280.5"/>
<path style="fill:none; stroke:#b3b3b3; stroke-linejoin:round;" d="M 440.6,37.9 V 280.5"/>
<path style="fill:none; stroke:#b3b3b3; stroke-linejoin:round;" d="M 492.7,37.9 V 280.5"/>
<path style="fill:none; stroke:#b3b3b3; stroke-linejoin:round;" d="M 544.8,37.9 V 280.5"/>
<path style="fill:none; stroke:#b3b3b3; stroke-linejoin:round;" d="M 544.8,280.5 H 128.2"/>
<path style="fill:none; stroke:#b3b3b3; stroke-linejoin:round;" d="M 544.8,245.9 H 128.2"/>
<path style="fill:none; stroke:#b3b3b3; stroke-linejoin:round;" d="M 544.8,211.2 H 128.2"/>
<path style="fill:none; stroke:#b3b3b3; stroke-linejoin:round;" d="M 544.8,176.6 H 128.2"/>
<path style="fill:none; stroke:#b3b3b3; stroke-linejoin:round;" d="M 544.8,141.9 H 128.2"/>
<path style="fill:none; stroke:#b3b3b3; stroke-linejoin:round;" d="M 544.8,107.3 H 128.2"/>
<path style="fill:none; stroke:#b3b3b3; stroke-linejoin:round;" d="M 544.8,72.6 H 128.2"/>
<path style="fill:none; stroke:#b3b3b3; stroke-linejoin:round;" d="M 544.8,37.9 H 128.2"/>
<path style="fill:none; stroke:#b3b3b3; stroke-linejoin:round;" d="m 128.2,286.1 v -5.5"/>
<path style="fill:none; stroke:#b3b3b3; stroke-linejoin:round;" d="m 128.2,286.1 v -5.5"/>
<path style="fill:none; stroke:#b3b3b3; stroke-linejoin:round;" d="m 180.2,286.1 v -5.5"/>
<path style="fill:none; stroke:#b3b3b3; stroke-linejoin:round;" d="m 180.2,286.1 v -5.5"/>
<path style="fill:none; stroke:#b3b3b3; stroke-linejoin:round;" d="m 232.4,286.1 v -5.5"/>
<path style="fill:none; stroke:#b3b3b3; stroke-linejoin:round;" d="m 232.4,286.1 v -5.5"/>
<path style="fill:none; stroke:#b3b3b3; stroke-linejoin:round;" d="m 284.4,286.1 v -5.5"/>
<path style="fill:none; stroke:#b3b3b3; stroke-linejoin:round;" d="m 284.4,286.1 v -5.5"/>
<path style="fill:none; stroke:#b3b3b3; stroke-linejoin:round;" d="m 336.5,286.1 v -5.5"/>
<path style="fill:none; stroke:#b3b3b3; stroke-linejoin:round;" d="m 336.5,286.1 v -5.5"/>
<path style="fill:none; stroke:#b3b3b3; stroke-linejoin:round;" d="m 388.6,286.1 v -5.5"/>
<path style="fill:none; stroke:#b3b3b3; stroke-linejoin:round;" d="m 388.6,286.1 v -5.5"/>
<path style="fill:none; stroke:#b3b3b3; stroke-linejoin:round;" d="m 440.6,286.1 v -5.5"/>
<path style="fill:none; stroke:#b3b3b3; stroke-linejoin:round;" d="m 440.6,286.1 v -5.5"/>
<path style="fill:none; stroke:#b3b3b3; stroke-linejoin:round;" d="m 492.7,286.1 v -5.5"/>
<path style="fill:none; stroke:#b3b3b3; stroke-linejoin:round;" d="m 492.7,286.1 v -5.5"/>
<path style="fill:none; stroke:#b3b3b3; stroke-linejoin:round;" d="m 544.8,286.1 v -5.5"/>
<path style="fill:none; stroke:#b3b3b3; stroke-linejoin:round;" d="m 544.8,286.1 v -5.5"/>
<path style="fill:none; stroke:#b3b3b3; stroke-linejoin:round;" d="m 128.2,280.5 h 416.6"/>
<path style="fill:none; stroke:#b3b3b3; stroke-linejoin:round;" d="m 122.7,280.5 h 5.5"/>
<path style="fill:none; stroke:#b3b3b3; stroke-linejoin:round;" d="m 122.7,280.5 h 5.5"/>
<path style="fill:none; stroke:#b3b3b3; stroke-linejoin:round;" d="m 122.7,245.9 h 5.5"/>
<path style="fill:none; stroke:#b3b3b3; stroke-linejoin:round;" d="m 122.7,245.9 h 5.5"/>
<path style="fill:none; stroke:#b3b3b3; stroke-linejoin:round;" d="m 122.7,211.2 h 5.5"/>
<path style="fill:none; stroke:#b3b3b3; stroke-linejoin:round;" d="m 122.7,211.2 h 5.5"/>
<path style="fill:none; stroke:#b3b3b3; stroke-linejoin:round;" d="m 122.7,176.6 h 5.5"/>
<path style="fill:none; stroke:#b3b3b3; stroke-linejoin:round;" d="m 122.7,176.6 h 5.5"/>
<path style="fill:none; stroke:#b3b3b3; stroke-linejoin:round;" d="m 122.7,141.9 h 5.5"/>
<path style="fill:none; stroke:#b3b3b3; stroke-linejoin:round;" d="m 122.7,141.9 h 5.5"/>
<path style="fill:none; stroke:#b3b3b3; stroke-linejoin:round;" d="m 122.7,107.3 h 5.5"/>
<path style="fill:none; stroke:#b3b3b3; stroke-linejoin:round;" d="m 122.7,107.3 h 5.5"/>
<path style="fill:none; stroke:#b3b3b3; stroke-linejoin:round;" d="m 122.7,72.6 h 5.5"/>
<path style="fill:none; stroke:#b3b3b3; stroke-linejoin:round;" d="m 122.7,72.6 h 5.5"/>
<path style="fill:none; stroke:#b3b3b3; stroke-linejoin:round;" d="m 122.7,37.9 h 5.5"/>
<path style="fill:none; stroke:#b3b3b3; stroke-linejoin:round;" d="m 122.7,37.9 h 5.5"/>
<path style="fill:none; stroke:#b3b3b3; stroke-linejoin:round;" d="M 128.2,280.5 V 37.9"/>
<text x="118.4" y="302" style="font-family:Arial;">10</text>
<text x="170.4" y="302.1" style="font-family:Arial;">12</text>
<text x="222.4" y="302.1" style="font-family:Arial;">14</text>
<text x="274.6" y="302" style="font-family:Arial;">16</text>
<text x="326.6" y="302" style="font-family:Arial;">18</text>
<text x="379.3" y="302" style="font-family:Arial;">20</text>
<text x="431.4" y="302.1" style="font-family:Arial;">22</text>
<text x="483.5" y="302.1" style="font-family:Arial;">24</text>
<text x="535.5" y="302" style="font-family:Arial;">26</text>
<text x="99.2" y="285.2" style="font-family:Arial;">$0</text>
<text x="81.8" y="250.7" style="font-family:Arial;">$100</text>
<text x="81.8" y="216.3" style="font-family:Arial;">$200</text>
<text x="81.8" y="181.8" style="font-family:Arial;">$300</text>
<text x="81.8" y="147.3" style="font-family:Arial;">$400</text>
<text x="81.8" y="112.9" style="font-family:Arial;">$500</text>
<text x="81.8" y="78.4" style="font-family:Arial;">$600</text>
<text x="81.8" y="44" style="font-family:Arial;">$700</text>
<text x="219.6" y="330.7" style="font-family:Georgia; font-size:24.2px; font-style:italic;">Temperature °C</text>
<text x="-187.2" y="70.5" transform="rotate(-90)" style="font-family:Georgia; font-size:24.2px; font-style:italic;">Sales</text>
<g transform="matrix(0.036937,0,0,0.036937,57.0552,31.4274)">
	<circle id="aa1" cx="3247.8" cy="5011.8" r="96.4703" style="color:black; overflow:visible; fill:#005c94; stroke:#005c94; stroke-width:79.37;"/>
	<use transform="translate(1646.42,-295.842)" xlink:href="#aa1"/>
	<use transform="translate(2379.6,-1350.58)" xlink:href="#aa1"/>
	<use transform="translate(3215.67,-1299.13)" xlink:href="#aa1"/>
	<use transform="translate(3768.77,-2096.62)" xlink:href="#aa1"/>
	<use transform="translate(4399.04,-2199.52)" xlink:href="#aa1"/>
	<use transform="translate(4694.88,-2070.89)" xlink:href="#aa1"/>
	<use transform="translate(5312.29,-2135.21)" xlink:href="#aa1"/>
	<use transform="translate(7601.85,-2405.32)" xlink:href="#aa1"/>
	<use transform="translate(7203.1,-3177.08)" xlink:href="#aa1"/>
	<use transform="translate(8154.94,-3357.16)" xlink:href="#aa1"/>
	<use transform="translate(9364.03,-4013.16)" xlink:href="#aa1"/>
</g>
</svg>